<?xml version="1.0" standalone="no"?><!DOCTYPE svg PUBLIC "-//W3C//DTD SVG 1.1//EN" "http://www.w3.org/Graphics/SVG/1.1/DTD/svg11.dtd"><svg height="1024" node-id="1" sillyvg="true" template-height="1024" template-width="1024" version="1.1" viewBox="0 0 1024 1024" width="1024" xmlns="http://www.w3.org/2000/svg" xmlns:xlink="http://www.w3.org/1999/xlink"><defs node-id="574"><linearGradient gradientUnits="objectBoundingBox" id="SVGID_00000087400794213696837940000007128179626589614736_" node-id="354" spreadMethod="pad" x1="178.9848" x2="178.9848" y1="530.18" y2="832.3582"><stop offset="0" stop-color="#9fc3ff"></stop><stop offset="1" stop-color="#f2f6fd"></stop></linearGradient><linearGradient gradientUnits="objectBoundingBox" id="SVGID_00000155858227993441232190000010924306545176351875_" node-id="358" spreadMethod="pad" x1="511.9999" x2="511.9999" y1="1024" y2="781.6501"><stop offset="0" stop-color="#69a2ff"></stop><stop offset="1" stop-color="#c3d9ff"></stop></linearGradient><linearGradient gradientUnits="objectBoundingBox" id="SVGID_00000144299954371060431390000017532259745738498722_" node-id="362" spreadMethod="pad" x1="870.0641" x2="766.8857" y1="198.9599" y2="106.5664"><stop offset="0" stop-color="#69a2ff"></stop><stop offset="1" stop-color="#c3d9ff"></stop></linearGradient><linearGradient gradientUnits="objectBoundingBox" id="SVGID_00000060002964084624367040000017016815060733764771_" node-id="366" spreadMethod="pad" x1="198.3015" x2="36.1721" y1="219.7219" y2="74.5395"><stop offset="0" stop-color="#69a2ff"></stop><stop offset="1" stop-color="#c3d9ff"></stop></linearGradient><linearGradient gradientUnits="objectBoundingBox" id="SVGID_00000041275839964633921000000013213022937181738402_" node-id="370" spreadMethod="pad" x1="959.2842" x2="876.7314" y1="262.3544" y2="188.4306"><stop offset="0" stop-color="#69a2ff"></stop><stop offset="1" stop-color="#c3d9ff"></stop></linearGradient><linearGradient gradientUnits="objectBoundingBox" id="SVGID_00000041289825860755401550000007154821812079548583_" node-id="375" spreadMethod="pad" x1="152.4992" x2="139.8959" y1="853.0433" y2="843.0314"><stop offset="0" stop-color="#69a2ff"></stop><stop offset="1" stop-color="#c3d9ff"></stop></linearGradient><linearGradient gradientUnits="objectBoundingBox" id="SVGID_00000074416404466497009850000013519980600328115891_" node-id="382" spreadMethod="pad" x1="897.1196" x2="878.5445" y1="865.0704" y2="850.3145"><stop offset="0" stop-color="#69a2ff"></stop><stop offset="1" stop-color="#c3d9ff"></stop></linearGradient><linearGradient gradientUnits="objectBoundingBox" id="SVGID_00000177449674544001653420000007633884477023198631_" node-id="389" spreadMethod="pad" x1="229.7763" x2="221.1478" y1="810.3451" y2="803.4907"><stop offset="0" stop-color="#69a2ff"></stop><stop offset="1" stop-color="#c3d9ff"></stop></linearGradient><linearGradient gradientUnits="objectBoundingBox" id="SVGID_00000162352372933109661790000010322445352410661560_" node-id="396" spreadMethod="pad" x1="520.8276" x2="437.6197" y1="595.3456" y2="366.7336"><stop offset="0" stop-color="#5783f3"></stop><stop offset="1" stop-color="#86aeff"></stop></linearGradient><linearGradient gradientUnits="objectBoundingBox" id="SVGID_00000021829221175624613220000003243907803571414148_" node-id="402" spreadMethod="pad" x1="297.1293" x2="297.1293" y1="536.8838" y2="378.9789"><stop offset="0" stop-color="#3f67ee"></stop><stop offset="1" stop-color="#5b8af4"></stop></linearGradient><linearGradient gradientUnits="objectBoundingBox" id="SVGID_00000147941323484173397010000000303228118843219337_" node-id="406" spreadMethod="pad" x1="685.7844" x2="685.7844" y1="536.8838" y2="378.9789"><stop offset="0" stop-color="#355ad8"></stop><stop offset="1" stop-color="#4872f0"></stop></linearGradient><linearGradient gradientUnits="objectBoundingBox" id="SVGID_00000128486593775511279940000017260843130456184752_" node-id="411" spreadMethod="pad" x1="517.2819" x2="443.5195" y1="395.313" y2="315.1528"><stop offset="0" stop-color="#5783f3"></stop><stop offset="1" stop-color="#86aeff"></stop></linearGradient><linearGradient gradientUnits="objectBoundingBox" id="SVGID_00000028315569961423756660000004330429367333699456_" node-id="415" spreadMethod="pad" x1="568.3307" x2="414.2077" y1="870.8006" y2="447.3512"><stop offset="0" stop-color="#5783f3"></stop><stop offset="1" stop-color="#86aeff"></stop></linearGradient></defs><g node-id="747"><path d="M 0.00 0.00 L 1024.00 0.00 L 1024.00 1024.00 L 0.00 1024.00 Z" fill="#f2f6fd" fill-rule="nonzero" group-id="1" node-id="659" stroke="none" target-height="1024" target-width="1024" target-x="0" target-y="0"></path><g node-id="749"><path d="M 282.10 616.50 L 253.60 585.40 L 252.70 584.60 L 250.90 584.00 L 249.20 584.60 L 248.30 585.40 L 219.70 616.60 L 218.60 619.10 L 218.40 620.80 L 218.40 541.20 L 218.10 538.20 L 217.40 535.60 L 216.10 533.40 L 214.60 531.70 L 213.40 530.90 L 210.70 530.20 L 132.50 530.20 L 129.80 530.90 L 128.60 531.70 L 127.00 533.40 L 125.80 535.60 L 125.00 538.20 L 124.80 541.20 L 124.80 636.50 L 123.30 634.10 L 122.20 633.40 L 121.10 633.20 L 78.70 633.20 L 76.60 634.00 L 75.70 634.90 L 74.70 637.50 L 74.50 825.50 L 74.70 827.10 L 75.70 829.70 L 76.60 830.60 L 78.70 831.40 L 121.10 831.40 L 123.10 830.60 L 124.00 829.70 L 125.10 827.10 L 125.20 825.00 L 125.90 827.10 L 128.00 830.30 L 129.40 831.40 L 130.80 832.10 L 132.50 832.40 L 210.70 832.40 L 213.40 831.70 L 214.60 830.90 L 216.10 829.20 L 217.40 826.90 L 218.10 824.40 L 218.40 821.40 L 218.60 825.90 L 219.20 827.70 L 220.00 829.20 L 221.10 830.40 L 222.40 831.10 L 223.80 831.40 L 278.20 831.40 L 279.60 831.10 L 280.80 830.40 L 281.90 829.20 L 282.80 827.70 L 283.50 823.80 L 283.50 620.90 L 283.30 619.20 L 282.10 616.50 Z M 111.80 764.30 L 92.10 764.30 L 92.10 726.60 L 111.80 726.60 L 111.80 764.30 Z M 111.80 707.00 L 92.10 707.00 L 92.10 668.00 L 111.80 668.00 L 111.80 707.00 Z M 164.80 612.00 L 142.80 612.00 L 142.80 565.30 L 164.80 565.30 L 164.80 612.00 Z M 247.70 677.50 L 229.00 677.50 L 229.00 640.10 L 247.70 640.10 L 247.70 677.50 Z" fill="url(#SVGID_00000087400794213696837940000007128179626589614736_)" fill-opacity="0.3" fill-rule="nonzero" group-id="1,3" node-id="663" stroke="none" target-height="302.2" target-width="209" target-x="74.5" target-y="530.2"></path></g><g node-id="750"><path d="M 1023.80 939.60 L 1016.30 931.20 L 1008.30 922.80 L 999.60 914.50 L 990.20 906.20 L 980.00 898.00 L 969.90 890.30 L 959.10 882.80 L 947.70 875.30 L 935.60 868.00 L 922.90 860.70 L 910.20 854.00 L 883.20 841.00 L 853.80 828.60 L 835.10 821.50 L 815.70 814.80 L 795.40 808.40 L 774.30 802.30 L 753.30 796.80 L 731.50 791.70 L 709.10 787.00 L 685.90 782.60 L 662.90 778.90 L 639.30 775.50 L 615.00 772.70 L 590.20 770.30 L 565.50 768.40 L 540.40 767.10 L 514.80 766.30 L 488.70 766.00 L 462.80 766.30 L 437.50 767.10 L 412.60 768.40 L 388.10 770.20 L 363.50 772.50 L 339.50 775.40 L 316.10 778.60 L 293.20 782.30 L 270.20 786.60 L 248.00 791.20 L 226.40 796.20 L 205.50 801.60 L 184.50 807.60 L 164.40 813.90 L 145.00 820.50 L 126.40 827.40 L 107.80 835.00 L 90.20 842.80 L 73.40 850.80 L 57.50 859.00 L 44.80 866.10 L 32.70 873.40 L 21.30 880.70 L 10.50 888.10 L 0.30 895.70 L 0.30 1024.00 L 1023.70 1024.00 L 1023.70 939.60 Z" fill="url(#SVGID_00000155858227993441232190000010924306545176351875_)" fill-opacity="0.2" fill-rule="nonzero" group-id="1,4" node-id="668" stroke="none" target-height="258" target-width="1023.5" target-x="0.3" target-y="766"></path></g><g node-id="751"><path d="M 788.60 194.40 L 877.50 194.40 L 881.30 194.10 L 884.80 193.40 L 888.30 192.20 L 891.50 190.60 L 894.50 188.50 L 897.20 186.10 L 899.60 183.30 L 901.60 180.30 L 903.20 176.80 L 904.30 173.20 L 904.90 169.60 L 905.10 166.00 L 904.70 162.40 L 903.90 158.90 L 902.70 155.40 L 900.90 152.20 L 898.80 149.30 L 896.20 146.50 L 893.30 144.10 L 890.10 142.20 L 886.80 140.80 L 883.30 139.80 L 879.70 139.30 L 876.10 139.20 L 872.50 139.60 L 868.90 140.50 L 865.40 141.90 L 863.90 137.80 L 862.00 134.10 L 859.70 130.60 L 856.90 127.50 L 853.90 124.70 L 850.60 122.30 L 847.00 120.20 L 843.20 118.70 L 839.20 117.50 L 835.10 116.80 L 830.90 116.60 L 826.50 116.90 L 822.30 117.80 L 818.20 119.10 L 814.50 120.80 L 810.90 123.00 L 807.70 125.60 L 804.80 128.50 L 802.20 131.70 L 800.00 135.20 L 798.30 138.90 L 796.90 142.90 L 796.10 147.00 L 795.70 151.40 L 792.90 150.60 L 787.30 150.30 L 784.50 150.60 L 779.20 152.40 L 774.50 155.40 L 772.40 157.40 L 769.10 162.10 L 767.10 167.40 L 766.60 172.90 L 767.50 178.50 L 769.80 183.80 L 773.30 188.20 L 777.80 191.50 L 783.00 193.60 L 788.60 194.40 Z" fill="url(#SVGID_00000144299954371060431390000017532259745738498722_)" fill-opacity="0.1" fill-rule="nonzero" group-id="1,5" node-id="673" stroke="none" target-height="77.799995" target-width="138.5" target-x="766.6" target-y="116.6"></path></g><g node-id="752"><path d="M 70.40 212.50 L 210.00 212.50 L 214.40 212.30 L 218.70 211.60 L 222.90 210.60 L 226.90 209.10 L 230.80 207.20 L 234.40 205.00 L 237.80 202.40 L 241.00 199.50 L 243.80 196.30 L 246.30 192.80 L 248.50 189.10 L 250.40 185.00 L 251.80 180.70 L 252.70 176.50 L 253.20 172.20 L 253.30 167.90 L 253.00 163.60 L 252.20 159.40 L 251.10 155.40 L 249.50 151.40 L 247.60 147.50 L 245.20 143.90 L 242.50 140.50 L 239.40 137.30 L 235.90 134.40 L 232.30 132.00 L 228.60 130.00 L 224.60 128.30 L 220.50 127.10 L 216.30 126.20 L 212.10 125.80 L 207.80 125.80 L 203.50 126.30 L 199.30 127.10 L 195.10 128.40 L 191.00 130.10 L 189.30 125.30 L 187.20 120.70 L 184.70 116.40 L 181.90 112.40 L 178.80 108.60 L 175.40 105.10 L 171.70 102.00 L 167.70 99.20 L 163.50 96.80 L 159.10 94.70 L 154.60 93.00 L 149.80 91.70 L 145.00 90.80 L 140.10 90.40 L 135.10 90.40 L 129.90 90.80 L 124.80 91.80 L 120.00 93.10 L 115.30 94.80 L 110.90 97.00 L 106.70 99.50 L 102.70 102.30 L 99.10 105.50 L 95.70 109.00 L 92.60 112.70 L 89.90 116.70 L 87.50 120.90 L 85.50 125.40 L 83.80 130.00 L 82.60 134.80 L 81.80 139.80 L 81.40 145.00 L 77.00 143.80 L 72.60 143.20 L 68.20 143.20 L 63.80 143.80 L 59.60 144.90 L 55.50 146.50 L 51.60 148.70 L 48.10 151.30 L 44.80 154.50 L 41.90 158.00 L 39.60 161.80 L 37.80 165.90 L 36.60 170.10 L 35.90 174.40 L 35.70 178.80 L 36.10 183.20 L 37.10 187.50 L 38.70 191.80 L 40.80 195.90 L 43.30 199.50 L 46.30 202.80 L 49.60 205.70 L 53.30 208.00 L 57.30 210.00 L 61.40 211.40 L 65.80 212.20 L 70.40 212.50 Z" fill="url(#SVGID_00000060002964084624367040000017016815060733764771_)" fill-opacity="0.1" fill-rule="nonzero" group-id="1,6" node-id="678" stroke="none" target-height="122.1" target-width="217.6" target-x="35.7" target-y="90.4"></path></g><g node-id="753"><path d="M 894.10 258.70 L 965.20 258.70 L 968.20 258.50 L 973.90 256.90 L 978.80 254.00 L 982.90 249.90 L 984.50 247.40 L 985.80 244.70 L 986.70 241.80 L 987.20 238.90 L 987.00 233.10 L 985.40 227.50 L 984.00 225.00 L 980.20 220.40 L 975.30 217.00 L 972.70 215.80 L 967.00 214.60 L 961.20 214.90 L 955.60 216.70 L 952.80 210.40 L 951.00 207.70 L 946.30 202.90 L 940.90 199.40 L 937.80 198.10 L 934.60 197.20 L 931.30 196.60 L 924.50 196.70 L 921.00 197.40 L 917.80 198.50 L 912.00 201.60 L 907.00 206.00 L 903.20 211.30 L 900.80 217.50 L 899.80 224.30 L 897.50 223.70 L 893.00 223.40 L 889.70 223.90 L 886.60 225.10 L 882.80 227.50 L 881.10 229.10 L 878.50 232.90 L 877.60 234.90 L 876.70 238.20 L 876.50 241.50 L 877.20 246.00 L 879.10 250.20 L 881.90 253.70 L 884.50 255.80 L 887.50 257.40 L 889.60 258.10 L 894.10 258.70 Z" fill="url(#SVGID_00000041275839964633921000000013213022937181738402_)" fill-opacity="0.1" fill-rule="nonzero" group-id="1,7" node-id="683" stroke="none" target-height="62.100006" target-width="110.70001" target-x="876.5" target-y="196.6"></path></g><g node-id="754"><path d="M 149.50 870.70 L 142.10 870.70 L 141.40 870.10 L 141.60 824.80 L 149.50 824.70 L 150.10 825.30 L 150.10 870.10 L 149.50 870.70 Z" fill="url(#SVGID_00000041289825860755401550000007154821812079548583_)" fill-rule="nonzero" group-id="1,8" node-id="688" stroke="none" target-height="46" target-width="8.700012" target-x="141.4" target-y="824.7"></path><path d="M 146.10 783.50 L 128.80 837.10 L 146.10 847.40 Z" fill="#a4c6ff" fill-rule="nonzero" group-id="1,8" node-id="690" stroke="none" target-height="63.900024" target-width="17.300003" target-x="128.8" target-y="783.5"></path><path d="M 146.10 783.50 L 163.50 834.40 L 146.10 844.10 Z" fill="#76aaff" fill-rule="nonzero" group-id="1,8" node-id="692" stroke="none" target-height="60.599976" target-width="17.399994" target-x="146.1" target-y="783.5"></path></g><g node-id="755"><path d="M 892.80 891.10 L 881.60 891.10 L 881.10 890.80 L 880.80 890.30 L 880.80 824.10 L 881.10 823.50 L 881.60 823.30 L 892.80 823.30 L 893.30 823.50 L 893.60 824.10 L 893.60 890.30 L 893.30 890.80 L 892.80 891.10 Z" fill="url(#SVGID_00000074416404466497009850000013519980600328115891_)" fill-rule="nonzero" group-id="1,9" node-id="697" stroke="none" target-height="67.79999" target-width="12.799988" target-x="880.8" target-y="823.3"></path><path d="M 887.70 762.80 L 862.20 841.60 L 887.70 856.70 Z" fill="#a4c6ff" fill-rule="nonzero" group-id="1,9" node-id="699" stroke="none" target-height="93.900024" target-width="25.5" target-x="862.2" target-y="762.8"></path><path d="M 887.70 762.80 L 913.20 837.60 L 887.70 851.90 Z" fill="#76aaff" fill-rule="nonzero" group-id="1,9" node-id="701" stroke="none" target-height="89.10004" target-width="25.5" target-x="887.7" target-y="762.8"></path></g><g node-id="756"><path d="M 227.70 822.40 L 222.60 822.40 L 222.20 822.00 L 222.20 791.30 L 222.60 790.90 L 227.70 790.90 L 228.10 791.30 L 228.10 822.00 L 227.70 822.40 Z" fill="url(#SVGID_00000177449674544001653420000007633884477023198631_)" fill-rule="nonzero" group-id="1,10" node-id="706" stroke="none" target-height="31.5" target-width="5.900009" target-x="222.2" target-y="790.9"></path><path d="M 225.40 762.80 L 213.50 799.40 L 225.40 806.50 Z" fill="#a4c6ff" fill-rule="nonzero" group-id="1,10" node-id="708" stroke="none" target-height="43.700012" target-width="11.899994" target-x="213.5" target-y="762.8"></path><path d="M 225.40 762.80 L 237.30 797.60 L 225.40 804.20 Z" fill="#76aaff" fill-rule="nonzero" group-id="1,10" node-id="710" stroke="none" target-height="41.400024" target-width="11.900009" target-x="225.4" target-y="762.8"></path></g></g><g node-id="748"><path d="M 706.30 527.50 L 276.30 527.50 L 274.70 527.30 L 272.00 525.70 L 270.10 523.00 L 269.10 519.40 L 269.40 515.50 L 302.20 431.50 L 304.60 424.70 L 308.30 418.80 L 310.50 416.30 L 315.60 412.00 L 321.50 409.00 L 327.90 407.40 L 331.30 407.20 L 656.30 407.20 L 659.90 407.50 L 663.30 408.10 L 666.60 409.20 L 669.70 410.60 L 675.40 414.60 L 680.10 419.90 L 682.10 422.90 L 683.60 426.20 L 684.90 429.70 L 685.80 433.50 L 713.30 516.10 L 713.40 519.90 L 712.30 523.30 L 710.40 525.80 L 709.10 526.70 L 706.30 527.50 Z" fill="url(#SVGID_00000162352372933109661790000010322445352410661560_)" fill-rule="nonzero" group-id="2" node-id="716" stroke="none" target-height="120.29999" target-width="444.30002" target-x="269.1" target-y="407.2"></path><g node-id="757"><path d="M 325.20 527.50 L 658.00 527.50 L 658.00 407.20 L 656.30 407.20 L 331.30 407.20 L 325.20 407.80 L 325.20 527.50 Z" fill="none" group-id="2,11" node-id="720" stroke="none" target-height="120.29999" target-width="332.8" target-x="325.2" target-y="407.2"></path><g node-id="758"><path d="M 302.20 431.50 L 269.40 515.50 L 269.10 517.50 L 269.50 521.20 L 270.10 523.00 L 272.00 525.70 L 273.30 526.70 L 274.80 527.30 L 276.30 527.50 L 325.20 527.50 L 325.20 407.80 L 321.60 408.90 L 318.20 410.40 L 315.00 412.40 L 312.10 414.70 L 309.40 417.40 L 307.00 420.50 L 305.00 423.80 L 303.40 427.50 L 302.20 431.50 Z" fill="url(#SVGID_00000021829221175624613220000003243907803571414148_)" fill-opacity="0.6" fill-rule="nonzero" group-id="2,11,12" node-id="724" stroke="none" target-height="119.70001" target-width="56.100006" target-x="269.1" target-y="407.8"></path></g><path d="M 706.30 527.50 L 709.10 526.70 L 710.40 525.80 L 712.30 523.30 L 713.40 519.90 L 713.30 516.10 L 685.80 433.40 L 683.80 426.40 L 680.50 420.30 L 678.30 417.60 L 673.50 413.00 L 667.70 409.60 L 664.70 408.50 L 658.00 407.20 L 658.00 527.50 L 706.30 527.50 Z" fill="url(#SVGID_00000147941323484173397010000000303228118843219337_)" fill-opacity="0.6" fill-rule="nonzero" group-id="2,11,13" node-id="729" stroke="none" target-height="120.29999" target-width="55.400024" target-x="658" target-y="407.2"></path></g><path d="M 552.10 467.60 L 428.50 467.40 L 425.10 466.20 L 422.30 463.80 L 420.40 460.60 L 419.70 456.90 L 420.40 453.10 L 421.20 451.50 L 423.50 448.70 L 426.70 446.80 L 430.50 446.10 L 554.00 446.30 L 557.50 447.60 L 560.30 450.00 L 562.20 453.10 L 562.80 456.90 L 562.10 460.60 L 560.30 463.80 L 557.50 466.20 L 555.80 467.00 L 552.10 467.60 Z" fill="#ffffff" fill-rule="nonzero" group-id="2" node-id="733" stroke="none" target-height="21.5" target-width="143.09998" target-x="419.7" target-y="446.1"></path><path d="M 545.80 367.10 L 545.50 372.50 L 544.70 377.80 L 543.40 382.90 L 541.60 387.90 L 539.30 392.70 L 536.60 397.30 L 533.50 401.50 L 529.80 405.60 L 525.80 409.20 L 521.50 412.40 L 517.00 415.10 L 512.10 417.40 L 507.10 419.20 L 502.00 420.50 L 496.70 421.30 L 491.30 421.50 L 485.60 421.20 L 480.20 420.40 L 475.10 419.10 L 470.10 417.30 L 465.30 414.90 L 460.80 412.20 L 456.70 409.10 L 452.80 405.60 L 449.30 401.70 L 446.10 397.50 L 443.40 393.10 L 441.10 388.30 L 439.30 383.30 L 438.00 378.10 L 437.10 372.70 L 436.80 367.10 L 437.10 361.40 L 438.00 356.00 L 439.30 350.80 L 441.10 345.90 L 443.40 341.10 L 446.10 336.60 L 449.30 332.40 L 452.80 328.60 L 456.70 325.00 L 460.80 321.90 L 465.30 319.20 L 470.10 316.90 L 475.10 315.00 L 480.20 313.70 L 485.60 312.90 L 491.30 312.60 L 496.70 312.90 L 502.00 313.70 L 507.10 314.90 L 512.10 316.70 L 517.00 319.00 L 521.50 321.70 L 525.80 324.90 L 529.80 328.60 L 533.50 332.60 L 536.60 336.90 L 539.30 341.40 L 541.60 346.20 L 543.40 351.20 L 544.70 356.40 L 545.50 361.60 L 545.80 367.10 Z" fill="url(#SVGID_00000128486593775511279940000017260843130456184752_)" fill-rule="nonzero" group-id="2" node-id="735" stroke="none" target-height="108.899994" target-width="109" target-x="436.8" target-y="312.6"></path><path d="M 710.30 818.90 L 272.30 818.90 L 270.70 818.60 L 269.50 817.70 L 268.70 816.50 L 268.40 815.00 L 268.40 503.20 L 268.70 501.60 L 269.50 500.40 L 270.70 499.60 L 272.30 499.30 L 710.30 499.30 L 711.80 499.60 L 713.00 500.40 L 713.90 501.60 L 714.20 503.20 L 714.20 815.00 L 713.90 816.50 L 713.00 817.70 L 711.80 818.60 L 710.30 818.90 Z" fill="url(#SVGID_00000028315569961423756660000004330429367333699456_)" fill-rule="nonzero" group-id="2" node-id="737" stroke="none" target-height="319.60004" target-width="445.80002" target-x="268.4" target-y="499.3"></path><path d="M 585.30 614.90 L 395.30 614.70 L 391.80 613.40 L 389.00 611.00 L 387.10 607.80 L 386.40 604.00 L 387.10 600.20 L 389.00 597.00 L 391.80 594.70 L 395.30 593.40 L 587.30 593.40 L 590.80 594.70 L 593.60 597.00 L 595.50 600.20 L 596.10 604.00 L 595.50 607.80 L 594.70 609.50 L 592.30 612.30 L 589.10 614.20 L 585.30 614.90 Z" fill="#ffffff" fill-rule="nonzero" group-id="2" node-id="739" stroke="none" target-height="21.5" target-width="209.69998" target-x="386.4" target-y="593.4"></path><path d="M 585.30 735.70 L 395.30 735.50 L 391.80 734.20 L 389.00 731.80 L 387.10 728.60 L 386.40 724.80 L 387.10 721.00 L 389.00 717.80 L 391.80 715.50 L 395.30 714.20 L 587.30 714.20 L 590.80 715.50 L 593.60 717.80 L 595.50 721.00 L 596.10 724.80 L 595.50 728.60 L 593.60 731.80 L 590.80 734.20 L 589.10 735.00 L 585.30 735.70 Z" fill="#ffffff" fill-rule="nonzero" group-id="2" node-id="741" stroke="none" target-height="21.5" target-width="209.69998" target-x="386.4" target-y="714.2"></path><path d="M 487.30 675.30 L 395.30 675.10 L 391.80 673.80 L 389.00 671.40 L 387.10 668.20 L 386.40 664.40 L 387.10 660.60 L 389.00 657.40 L 391.80 655.10 L 395.30 653.80 L 489.30 653.80 L 492.80 655.10 L 495.60 657.40 L 497.50 660.60 L 498.20 664.40 L 497.50 668.20 L 495.60 671.40 L 492.80 673.80 L 491.10 674.60 L 487.30 675.30 Z" fill="#ffffff" fill-rule="nonzero" group-id="2" node-id="743" stroke="none" target-height="21.5" target-width="111.80002" target-x="386.4" target-y="653.8"></path><path d="M 585.30 675.30 L 537.80 675.30 L 534.00 674.60 L 530.80 672.70 L 528.40 669.90 L 527.10 666.40 L 527.10 662.40 L 528.40 659.00 L 530.80 656.10 L 534.00 654.30 L 537.80 653.60 L 585.30 653.60 L 589.10 654.30 L 592.30 656.10 L 594.70 659.00 L 596.00 662.40 L 596.00 666.40 L 594.70 669.90 L 592.30 672.70 L 589.10 674.60 L 585.30 675.30 Z" fill="#ffffff" fill-rule="nonzero" group-id="2" node-id="745" stroke="none" target-height="21.700012" target-width="68.900024" target-x="527.1" target-y="653.6"></path></g></svg>